<svg width="165" height="44" viewBox="0 0 165 44" fill="none" xmlns="http://www.w3.org/2000/svg">
<path d="M0.222995 33.9838L1.0713 33.7638C1.51778 33.6465 1.86008 33.5438 2.0982 33.4558C2.36609 33.3385 2.55956 33.1918 2.67862 33.0158C2.79768 32.8398 2.87209 32.6051 2.90186 32.3118C2.93162 32.0185 2.94651 31.6225 2.94651 31.1238V18.0116C2.94651 17.5422 2.93162 17.1609 2.90186 16.8676C2.87209 16.5742 2.79768 16.3249 2.67862 16.1196C2.58932 15.9142 2.4405 15.7235 2.23214 15.5475C2.02379 15.3715 1.7559 15.1515 1.42848 14.8875L-0.000244141 13.8315V12.8195L10.7599 11.7195L11.3403 12.1155L11.251 15.0635H11.4742C12.6946 14.1542 13.9745 13.3768 15.3139 12.7315C16.6534 12.0568 18.1714 11.7195 19.868 11.7195C22.4873 11.7195 24.2435 12.8342 25.1364 15.0635H25.3597C26.58 14.1542 27.8748 13.3768 29.244 12.7315C30.6132 12.0568 32.1461 11.7195 33.8427 11.7195C35.5096 11.7195 36.8639 12.2182 37.9057 13.2155C38.9772 14.1835 39.513 15.6502 39.513 17.6156V31.1238C39.513 31.6518 39.5279 32.0625 39.5576 32.3558C39.5874 32.6491 39.6618 32.8838 39.7809 33.0598C39.9297 33.2358 40.1232 33.3678 40.3613 33.4558C40.5994 33.5438 40.9417 33.6465 41.3882 33.7638L42.2365 33.9838V35.3918H28.7975V33.9838L29.4226 33.8078C29.7798 33.7198 30.0477 33.6318 30.2263 33.5438C30.4346 33.4558 30.5835 33.3238 30.6727 33.1478C30.762 32.9718 30.8216 32.7371 30.8513 32.4438C30.8811 32.1211 30.896 31.6811 30.896 31.1238V19.7716C30.896 18.5396 30.7025 17.7036 30.3156 17.2636C29.9584 16.7942 29.3482 16.5596 28.485 16.5596C27.8897 16.5596 27.3391 16.5889 26.833 16.6476C26.327 16.7062 25.8657 16.7649 25.449 16.8236C25.4787 16.9702 25.4936 17.1609 25.4936 17.3956C25.5234 17.6302 25.5383 17.8649 25.5383 18.0996V31.1238C25.5383 31.6811 25.5531 32.1211 25.5829 32.4438C25.6127 32.7371 25.6722 32.9718 25.7615 33.1478C25.8508 33.3238 25.9847 33.4558 26.1633 33.5438C26.3717 33.6318 26.6545 33.7198 27.0116 33.8078L27.6367 33.9838V35.3918H14.8228V33.9838L15.4479 33.8078C15.8051 33.7198 16.0729 33.6318 16.2515 33.5438C16.4599 33.4558 16.6087 33.3238 16.698 33.1478C16.7873 32.9718 16.8468 32.7371 16.8766 32.4438C16.9064 32.1211 16.9212 31.6811 16.9212 31.1238V19.7716C16.9212 18.5396 16.7278 17.7036 16.3408 17.2636C15.9836 16.7942 15.3735 16.5596 14.5103 16.5596C13.915 16.5596 13.3792 16.5889 12.903 16.6476C12.4267 16.7062 11.9802 16.7649 11.5635 16.8236V31.1238C11.5635 31.6811 11.5784 32.1211 11.6082 32.4438C11.6379 32.7371 11.6975 32.9718 11.7868 33.1478C11.8761 33.3238 12.01 33.4558 12.1886 33.5438C12.3969 33.6318 12.6797 33.7198 13.0369 33.8078L13.662 33.9838V35.3918H0.222995V33.9838Z" fill="black"/>
<path fill-rule="evenodd" clip-rule="evenodd" d="M50.7388 35.1809C52.2569 35.6503 53.8493 35.8849 55.5161 35.8849C57.1235 35.8849 58.6861 35.6649 60.2042 35.2249C61.7222 34.7849 63.0616 34.0809 64.2225 33.1129C65.4131 32.1449 66.3655 30.8835 67.0799 29.3288C67.824 27.7741 68.1961 25.8968 68.1961 23.6968C68.1961 21.6434 67.8389 19.8687 67.1246 18.3727C66.44 16.8766 65.5024 15.63 64.3118 14.6326C63.1509 13.6353 61.7966 12.9019 60.2488 12.4326C58.7308 11.9339 57.1532 11.6846 55.5161 11.6846C53.9386 11.6846 52.3908 11.9046 50.8728 12.3446C49.3845 12.7846 48.0302 13.4886 46.8098 14.4566C45.6192 15.4246 44.6519 16.686 43.9077 18.2407C43.1934 19.7954 42.8362 21.6727 42.8362 23.8728C42.8362 25.9261 43.1785 27.7155 43.8631 29.2408C44.5774 30.7369 45.515 31.9835 46.6759 32.9809C47.8665 33.9489 49.2208 34.6823 50.7388 35.1809ZM49.4856 31.8433C49.0647 31.6358 48.6753 31.3558 48.3175 31.0032C47.8334 30.5261 47.4967 30.0491 47.3073 29.572C47.1389 29.0742 47.202 28.4519 47.4967 27.7052C47.8334 26.9585 48.4649 26.0251 49.3909 24.905C50.317 23.7849 51.643 22.3745 53.3688 20.6736C54.779 19.2839 55.9787 18.2053 56.9679 17.4379C57.9782 16.6911 58.8306 16.183 59.5251 15.9133C60.2407 15.6644 60.8406 15.6126 61.3247 15.7577C61.8298 15.8822 62.2823 16.1415 62.6822 16.5356C63.1032 16.9504 63.4083 17.3964 63.5978 17.8734C63.8082 18.3298 63.7767 18.9209 63.503 19.6469C63.2505 20.3936 62.6927 21.3166 61.8298 22.416C60.9669 23.5153 59.683 24.905 57.9782 26.5851C56.3365 28.203 54.9684 29.4061 53.874 30.1943C52.8006 31.0032 51.9061 31.5321 51.1905 31.781C50.4959 32.0092 49.9276 32.0299 49.4856 31.8433Z" fill="#FF5C00"/>
<path d="M68.7892 33.9835L69.6375 33.7635C70.0839 33.6462 70.4262 33.5435 70.6644 33.4555C70.9322 33.3382 71.1257 33.1915 71.2448 33.0155C71.3638 32.8395 71.4383 32.6048 71.468 32.3115C71.4978 32.0182 71.5127 31.6222 71.5127 31.1235V18.0113C71.5127 17.5419 71.4978 17.1606 71.468 16.8673C71.4383 16.5739 71.3638 16.3246 71.2448 16.1193C71.1555 15.9139 71.0067 15.7232 70.7983 15.5472C70.5899 15.3712 70.3221 15.1512 69.9946 14.8872L68.5659 13.8312V12.8192L79.326 11.7192L79.9064 12.1152L79.8171 15.0632H80.0404C81.2608 14.1539 82.5704 13.3765 83.9694 12.7312C85.3981 12.0565 86.9906 11.7192 88.7467 11.7192C90.5028 11.7192 91.9018 12.2179 92.9436 13.2152C94.0151 14.1832 94.5509 15.6499 94.5509 17.6153V31.1235C94.5509 31.6515 94.5658 32.0622 94.5956 32.3555C94.6253 32.6488 94.6997 32.8835 94.8188 33.0595C94.9676 33.2355 95.1611 33.3675 95.3992 33.4555C95.6373 33.5435 95.9796 33.6462 96.4261 33.7635L97.2744 33.9835V35.3916H83.6122V33.9835L84.3266 33.8075C84.7135 33.7195 85.0112 33.6315 85.2195 33.5435C85.4576 33.4555 85.6214 33.3235 85.7107 33.1475C85.8297 32.9715 85.8892 32.7368 85.8892 32.4435C85.919 32.1208 85.9339 31.6808 85.9339 31.1235V19.7713C85.9339 18.5393 85.6958 17.7033 85.2195 17.2633C84.773 16.7939 84.1182 16.5593 83.255 16.5593C82.6002 16.5593 82.0198 16.5886 81.5138 16.6473C81.0078 16.7059 80.5464 16.7646 80.1297 16.8233V31.1235C80.1297 31.6808 80.1297 32.1208 80.1297 32.4435C80.1594 32.7368 80.219 32.9715 80.3083 33.1475C80.4273 33.3235 80.591 33.4555 80.7994 33.5435C81.0375 33.6315 81.3501 33.7195 81.737 33.8075L82.4514 33.9835V35.3916H68.7892V33.9835Z" fill="black"/>
<path d="M110.284 35.9196C106.236 35.9196 103.2 34.8782 101.176 32.7955C99.1819 30.6835 98.1848 27.6914 98.1848 23.8194C98.1848 21.8247 98.5271 20.0793 99.2117 18.5833C99.9261 17.0579 100.849 15.7966 101.98 14.7992C103.141 13.7726 104.435 13.0099 105.864 12.5112C107.323 11.9832 108.796 11.7192 110.284 11.7192C111.921 11.7192 113.395 11.9245 114.704 12.3352C116.014 12.7459 117.13 13.3912 118.053 14.2712C118.976 15.1512 119.69 16.2953 120.196 17.7033C120.732 19.082 121.03 20.7687 121.089 22.7634H106.534C106.593 24.5527 106.787 26.0194 107.114 27.1634C107.472 28.2781 107.963 29.1581 108.588 29.8035C109.213 30.4488 109.972 30.9035 110.865 31.1675C111.758 31.4022 112.785 31.5195 113.945 31.5195C115.196 31.5195 116.342 31.3728 117.383 31.0795C118.455 30.7568 119.422 30.3755 120.285 29.9355V31.4755C119.839 32.0035 119.288 32.5315 118.633 33.0595C117.979 33.5875 117.22 34.0715 116.356 34.5115C115.523 34.9222 114.585 35.2595 113.544 35.5236C112.532 35.7876 111.445 35.9196 110.284 35.9196ZM109.838 13.6112C109.391 13.6112 108.975 13.7432 108.588 14.0072C108.201 14.2419 107.858 14.6526 107.561 15.2392C107.263 15.7966 107.025 16.5446 106.846 17.4833C106.668 18.422 106.564 19.5806 106.534 20.9593L112.785 20.5633C112.785 19.2433 112.74 18.1433 112.651 17.2633C112.561 16.3539 112.398 15.6352 112.16 15.1072C111.951 14.5499 111.654 14.1686 111.267 13.9632C110.88 13.7286 110.403 13.6112 109.838 13.6112Z" fill="black"/>
<path d="M131.047 35.9196C128.696 35.9196 126.969 35.3916 125.868 34.3355C124.767 33.2502 124.216 31.4902 124.216 29.0555V15.3272H121.537V14.0952C123.413 13.3325 125.05 12.2765 126.449 10.9272C127.848 9.57782 128.874 7.97913 129.529 6.1311H132.833V12.2912H138.637L137.968 15.3272H132.833V28.6594C132.833 29.8328 133.012 30.6688 133.369 31.1675C133.756 31.6368 134.545 31.8715 135.735 31.8715C136.212 31.8715 136.747 31.8422 137.343 31.7835C137.938 31.6955 138.429 31.6222 138.816 31.5635V33.0155C138.518 33.3088 138.131 33.6315 137.655 33.9835C137.209 34.3062 136.658 34.6142 136.003 34.9075C135.378 35.2009 134.649 35.4355 133.815 35.6116C133.012 35.8169 132.089 35.9196 131.047 35.9196Z" fill="black"/>
<path d="M146.348 35.9196C144.205 35.9196 142.538 35.4209 141.347 34.4235C140.186 33.3969 139.606 31.9595 139.606 30.1115C139.606 29.1141 139.785 28.2488 140.142 27.5154C140.499 26.7528 141.035 26.0927 141.749 25.5354C142.493 24.9487 143.416 24.45 144.517 24.0394C145.648 23.5994 146.988 23.1887 148.536 22.8074L152.063 21.9273V18.4513C152.063 17.4539 152.003 16.6473 151.884 16.0313C151.795 15.4152 151.631 14.9312 151.393 14.5792C151.185 14.2272 150.902 13.9926 150.545 13.8752C150.217 13.7579 149.83 13.6992 149.384 13.6992C148.878 13.6992 148.521 13.8019 148.312 14.0072C148.104 14.1832 147.97 14.5792 147.911 15.1952C147.791 16.8966 147.405 18.0553 146.75 18.6713C146.095 19.2873 145.127 19.5953 143.848 19.5953C142.806 19.5953 141.972 19.346 141.347 18.8473C140.752 18.3486 140.454 17.5859 140.454 16.5593C140.454 15.8553 140.648 15.2099 141.035 14.6232C141.451 14.0072 142.091 13.4939 142.955 13.0832C143.848 12.6432 144.964 12.3059 146.303 12.0712C147.672 11.8365 149.309 11.7192 151.214 11.7192C152.643 11.7192 153.938 11.8365 155.099 12.0712C156.26 12.2765 157.257 12.6285 158.09 13.1272C158.924 13.5966 159.564 14.2419 160.01 15.0632C160.457 15.8553 160.68 16.8233 160.68 17.9673V29.4075C160.68 30.3461 160.739 31.0208 160.858 31.4315C160.977 31.8128 161.245 32.1208 161.662 32.3555C161.96 32.5022 162.317 32.6195 162.734 32.7075C163.15 32.7662 163.478 32.7955 163.716 32.7955V34.1155C163.24 34.4675 162.525 34.8635 161.573 35.3035C160.62 35.7142 159.34 35.9196 157.733 35.9196C154.905 35.9196 153.179 34.9955 152.554 33.1475H152.375C151.78 33.8515 151.006 34.4969 150.054 35.0835C149.131 35.6409 147.896 35.9196 146.348 35.9196ZM150.455 32.2675C151.2 32.2675 151.735 31.9742 152.063 31.3875V24.3914L150.723 24.4794C149.741 24.538 149.042 24.8607 148.625 25.4474C148.208 26.0341 148 27.0901 148 28.6154C148 29.3781 148.059 29.9941 148.178 30.4635C148.327 30.9328 148.506 31.2995 148.714 31.5635C148.952 31.8275 149.22 32.0182 149.518 32.1355C149.815 32.2235 150.128 32.2675 150.455 32.2675Z" fill="black"/>
</svg>
